<mxfile host="Electron" modified="2024-07-16T11:54:53.588Z" agent="Mozilla/5.0 (Windows NT 10.0; Win64; x64) AppleWebKit/537.36 (KHTML, like Gecko) draw.io/24.6.4 Chrome/124.0.6367.207 Electron/30.0.6 Safari/537.36" etag="ZefK7XoalHuiGyhiPU-j" version="24.6.4" type="device">
  <diagram name="Page-1" id="EnA34JG0hyUmVIvk6O4O">
    <mxGraphModel dx="1900" dy="621" grid="1" gridSize="10" guides="1" tooltips="1" connect="1" arrows="1" fold="1" page="1" pageScale="1" pageWidth="850" pageHeight="1100" math="0" shadow="0">
      <root>
        <mxCell id="0" />
        <mxCell id="1" parent="0" />
        <mxCell id="9iPAaeVlu0GO-li201t--1" value="&lt;font style=&quot;font-size: 13px;&quot;&gt;sales office&lt;/font&gt;" style="rounded=1;arcSize=10;whiteSpace=wrap;html=1;align=center;" vertex="1" parent="1">
          <mxGeometry x="100" y="190" width="100" height="40" as="geometry" />
        </mxCell>
        <mxCell id="9iPAaeVlu0GO-li201t--2" value="&lt;u&gt;office_number&lt;/u&gt;" style="ellipse;whiteSpace=wrap;html=1;align=center;" vertex="1" parent="1">
          <mxGeometry x="50" y="120" width="100" height="40" as="geometry" />
        </mxCell>
        <mxCell id="9iPAaeVlu0GO-li201t--3" value="" style="endArrow=none;html=1;rounded=0;exitX=0.5;exitY=1;exitDx=0;exitDy=0;entryX=0.25;entryY=0;entryDx=0;entryDy=0;" edge="1" parent="1" source="9iPAaeVlu0GO-li201t--2" target="9iPAaeVlu0GO-li201t--1">
          <mxGeometry relative="1" as="geometry">
            <mxPoint x="170" y="180" as="sourcePoint" />
            <mxPoint x="330" y="180" as="targetPoint" />
          </mxGeometry>
        </mxCell>
        <mxCell id="9iPAaeVlu0GO-li201t--4" value="location&amp;nbsp;" style="ellipse;whiteSpace=wrap;html=1;align=center;" vertex="1" parent="1">
          <mxGeometry x="170" y="120" width="100" height="40" as="geometry" />
        </mxCell>
        <mxCell id="9iPAaeVlu0GO-li201t--7" value="" style="endArrow=none;html=1;rounded=0;exitX=0.5;exitY=1;exitDx=0;exitDy=0;entryX=0.592;entryY=0.01;entryDx=0;entryDy=0;entryPerimeter=0;" edge="1" parent="1" source="9iPAaeVlu0GO-li201t--4" target="9iPAaeVlu0GO-li201t--1">
          <mxGeometry relative="1" as="geometry">
            <mxPoint x="230" y="170" as="sourcePoint" />
            <mxPoint x="265" y="210" as="targetPoint" />
            <Array as="points" />
          </mxGeometry>
        </mxCell>
        <mxCell id="9iPAaeVlu0GO-li201t--8" value="employees&amp;nbsp;" style="rounded=1;arcSize=10;whiteSpace=wrap;html=1;align=center;" vertex="1" parent="1">
          <mxGeometry x="570" y="190" width="100" height="40" as="geometry" />
        </mxCell>
        <mxCell id="9iPAaeVlu0GO-li201t--9" value="&lt;u&gt;Emp_id&lt;/u&gt;" style="ellipse;whiteSpace=wrap;html=1;align=center;" vertex="1" parent="1">
          <mxGeometry x="520" y="110" width="100" height="40" as="geometry" />
        </mxCell>
        <mxCell id="9iPAaeVlu0GO-li201t--10" value="emp_name" style="ellipse;whiteSpace=wrap;html=1;align=center;" vertex="1" parent="1">
          <mxGeometry x="640" y="120" width="100" height="40" as="geometry" />
        </mxCell>
        <mxCell id="9iPAaeVlu0GO-li201t--11" value="" style="endArrow=none;html=1;rounded=0;entryX=0.5;entryY=0;entryDx=0;entryDy=0;" edge="1" parent="1" source="9iPAaeVlu0GO-li201t--9" target="9iPAaeVlu0GO-li201t--8">
          <mxGeometry relative="1" as="geometry">
            <mxPoint x="605.2" y="160" as="sourcePoint" />
            <mxPoint x="560" y="196" as="targetPoint" />
            <Array as="points" />
          </mxGeometry>
        </mxCell>
        <mxCell id="9iPAaeVlu0GO-li201t--12" value="" style="endArrow=none;html=1;rounded=0;exitX=0.5;exitY=1;exitDx=0;exitDy=0;entryX=0.75;entryY=0;entryDx=0;entryDy=0;" edge="1" parent="1" source="9iPAaeVlu0GO-li201t--10" target="9iPAaeVlu0GO-li201t--8">
          <mxGeometry relative="1" as="geometry">
            <mxPoint x="675.2" y="160" as="sourcePoint" />
            <mxPoint x="630" y="196" as="targetPoint" />
            <Array as="points" />
          </mxGeometry>
        </mxCell>
        <mxCell id="9iPAaeVlu0GO-li201t--13" value="&lt;span id=&quot;docs-internal-guid-a40289fe-7fff-3c31-e89a-48deb0fe9cfd&quot;&gt;&lt;span style=&quot;font-size: 14pt; font-family: Arial, sans-serif; background-color: transparent; font-variant-numeric: normal; font-variant-east-asian: normal; font-variant-alternates: normal; font-variant-position: normal; vertical-align: baseline; white-space-collapse: preserve;&quot;&gt;property &lt;/span&gt;&lt;/span&gt;" style="rounded=1;arcSize=10;whiteSpace=wrap;html=1;align=center;" vertex="1" parent="1">
          <mxGeometry x="110" y="380" width="100" height="40" as="geometry" />
        </mxCell>
        <mxCell id="9iPAaeVlu0GO-li201t--14" value="&lt;span id=&quot;docs-internal-guid-83a933f4-7fff-68ca-2d6f-78c5c4ba08d6&quot;&gt;&lt;span style=&quot;font-size: 15px; font-family: Arial, sans-serif; background-color: transparent; font-variant-numeric: normal; font-variant-east-asian: normal; font-variant-alternates: normal; font-variant-position: normal; vertical-align: baseline; white-space-collapse: preserve;&quot;&gt;&lt;u&gt;Property_ID&lt;/u&gt;&lt;/span&gt;&lt;/span&gt;" style="ellipse;whiteSpace=wrap;html=1;align=center;" vertex="1" parent="1">
          <mxGeometry x="-110" y="290" width="100" height="40" as="geometry" />
        </mxCell>
        <mxCell id="9iPAaeVlu0GO-li201t--15" value="&lt;span id=&quot;docs-internal-guid-4574cbdf-7fff-9b85-7a3a-1b6a4e3f01fb&quot;&gt;&lt;span style=&quot;font-size: 17px; font-family: Arial, sans-serif; background-color: transparent; font-variant-numeric: normal; font-variant-east-asian: normal; font-variant-alternates: normal; font-variant-position: normal; vertical-align: baseline; white-space-collapse: preserve;&quot;&gt;Location&lt;/span&gt;&lt;/span&gt;" style="ellipse;whiteSpace=wrap;html=1;align=center;" vertex="1" parent="1">
          <mxGeometry x="-20" y="380" width="100" height="40" as="geometry" />
        </mxCell>
        <mxCell id="9iPAaeVlu0GO-li201t--16" value="&lt;span id=&quot;docs-internal-guid-0525c4d7-7fff-f24d-7714-2a5ecf475856&quot;&gt;&lt;span style=&quot;font-size: 14px; font-family: Arial, sans-serif; background-color: transparent; font-variant-numeric: normal; font-variant-east-asian: normal; font-variant-alternates: normal; font-variant-position: normal; vertical-align: baseline; white-space-collapse: preserve;&quot;&gt;Address&lt;/span&gt;&lt;/span&gt;" style="ellipse;whiteSpace=wrap;html=1;align=center;" vertex="1" parent="1">
          <mxGeometry x="-70" y="450" width="90" height="30" as="geometry" />
        </mxCell>
        <mxCell id="9iPAaeVlu0GO-li201t--17" value="&lt;span id=&quot;docs-internal-guid-02eaac0e-7fff-12d1-114c-93bcebaabfb0&quot;&gt;&lt;span style=&quot;font-size: 14px; font-family: Arial, sans-serif; background-color: transparent; font-variant-numeric: normal; font-variant-east-asian: normal; font-variant-alternates: normal; font-variant-position: normal; vertical-align: baseline; white-space-collapse: preserve;&quot;&gt;City&lt;/span&gt;&lt;/span&gt;" style="ellipse;whiteSpace=wrap;html=1;align=center;" vertex="1" parent="1">
          <mxGeometry x="-140" y="385" width="80" height="30" as="geometry" />
        </mxCell>
        <mxCell id="9iPAaeVlu0GO-li201t--18" value="&lt;span id=&quot;docs-internal-guid-0d21e450-7fff-334a-6dda-fb9d7b494d0e&quot;&gt;&lt;span style=&quot;font-size: 15px; font-family: Arial, sans-serif; background-color: transparent; font-variant-numeric: normal; font-variant-east-asian: normal; font-variant-alternates: normal; font-variant-position: normal; vertical-align: baseline; white-space-collapse: preserve;&quot;&gt;State&lt;/span&gt;&lt;/span&gt;" style="ellipse;whiteSpace=wrap;html=1;align=center;" vertex="1" parent="1">
          <mxGeometry x="-160" y="430" width="80" height="30" as="geometry" />
        </mxCell>
        <mxCell id="9iPAaeVlu0GO-li201t--19" value="&lt;span id=&quot;docs-internal-guid-6823d4c2-7fff-4a7a-ea0c-1dfe693ccae6&quot;&gt;&lt;span style=&quot;font-size: 15px; font-family: Arial, sans-serif; background-color: transparent; font-variant-numeric: normal; font-variant-east-asian: normal; font-variant-alternates: normal; font-variant-position: normal; vertical-align: baseline; white-space-collapse: preserve;&quot;&gt;Zip_Code&lt;/span&gt;&lt;/span&gt;" style="ellipse;whiteSpace=wrap;html=1;align=center;" vertex="1" parent="1">
          <mxGeometry x="-120" y="345" width="80" height="30" as="geometry" />
        </mxCell>
        <mxCell id="9iPAaeVlu0GO-li201t--21" value="" style="endArrow=none;html=1;rounded=0;exitX=1;exitY=1;exitDx=0;exitDy=0;entryX=0.332;entryY=-0.06;entryDx=0;entryDy=0;entryPerimeter=0;" edge="1" parent="1" source="9iPAaeVlu0GO-li201t--14" target="9iPAaeVlu0GO-li201t--13">
          <mxGeometry relative="1" as="geometry">
            <mxPoint x="160" y="350" as="sourcePoint" />
            <mxPoint x="320" y="350" as="targetPoint" />
          </mxGeometry>
        </mxCell>
        <mxCell id="9iPAaeVlu0GO-li201t--22" value="" style="endArrow=none;html=1;rounded=0;exitX=1;exitY=0.5;exitDx=0;exitDy=0;entryX=0;entryY=0.5;entryDx=0;entryDy=0;" edge="1" parent="1" source="9iPAaeVlu0GO-li201t--15" target="9iPAaeVlu0GO-li201t--13">
          <mxGeometry relative="1" as="geometry">
            <mxPoint x="80" y="400" as="sourcePoint" />
            <mxPoint x="100" y="400" as="targetPoint" />
          </mxGeometry>
        </mxCell>
        <mxCell id="9iPAaeVlu0GO-li201t--23" value="" style="endArrow=none;html=1;rounded=0;exitX=1;exitY=0.5;exitDx=0;exitDy=0;entryX=0;entryY=0;entryDx=0;entryDy=0;" edge="1" parent="1" source="9iPAaeVlu0GO-li201t--19" target="9iPAaeVlu0GO-li201t--15">
          <mxGeometry relative="1" as="geometry">
            <mxPoint x="-20" y="359.5" as="sourcePoint" />
            <mxPoint x="50" y="359.5" as="targetPoint" />
            <Array as="points" />
          </mxGeometry>
        </mxCell>
        <mxCell id="9iPAaeVlu0GO-li201t--26" value="" style="endArrow=none;html=1;rounded=0;entryX=0;entryY=0.5;entryDx=0;entryDy=0;" edge="1" parent="1" target="9iPAaeVlu0GO-li201t--15">
          <mxGeometry relative="1" as="geometry">
            <mxPoint x="-62" y="400" as="sourcePoint" />
            <mxPoint x="-20" y="400" as="targetPoint" />
          </mxGeometry>
        </mxCell>
        <mxCell id="9iPAaeVlu0GO-li201t--27" value="" style="endArrow=none;html=1;rounded=0;exitX=1;exitY=0.5;exitDx=0;exitDy=0;" edge="1" parent="1" source="9iPAaeVlu0GO-li201t--18">
          <mxGeometry relative="1" as="geometry">
            <mxPoint x="60" y="480" as="sourcePoint" />
            <mxPoint x="-10" y="410" as="targetPoint" />
          </mxGeometry>
        </mxCell>
        <mxCell id="9iPAaeVlu0GO-li201t--28" value="" style="endArrow=none;html=1;rounded=0;exitX=0.5;exitY=0;exitDx=0;exitDy=0;entryX=0.32;entryY=1.04;entryDx=0;entryDy=0;entryPerimeter=0;" edge="1" parent="1" source="9iPAaeVlu0GO-li201t--16" target="9iPAaeVlu0GO-li201t--15">
          <mxGeometry relative="1" as="geometry">
            <mxPoint x="20" y="450" as="sourcePoint" />
            <mxPoint x="180" y="450" as="targetPoint" />
          </mxGeometry>
        </mxCell>
        <mxCell id="9iPAaeVlu0GO-li201t--29" value="owner" style="rounded=1;arcSize=10;whiteSpace=wrap;html=1;align=center;" vertex="1" parent="1">
          <mxGeometry x="550" y="375" width="100" height="40" as="geometry" />
        </mxCell>
        <mxCell id="9iPAaeVlu0GO-li201t--30" value="&lt;u&gt;owner_id&lt;/u&gt;" style="ellipse;whiteSpace=wrap;html=1;align=center;" vertex="1" parent="1">
          <mxGeometry x="710" y="370" width="100" height="40" as="geometry" />
        </mxCell>
        <mxCell id="9iPAaeVlu0GO-li201t--31" value="" style="endArrow=none;html=1;rounded=0;exitX=1;exitY=0.5;exitDx=0;exitDy=0;entryX=0;entryY=0.5;entryDx=0;entryDy=0;" edge="1" parent="1" source="9iPAaeVlu0GO-li201t--29" target="9iPAaeVlu0GO-li201t--30">
          <mxGeometry relative="1" as="geometry">
            <mxPoint x="670" y="400" as="sourcePoint" />
            <mxPoint x="830" y="400" as="targetPoint" />
          </mxGeometry>
        </mxCell>
        <mxCell id="9iPAaeVlu0GO-li201t--32" value="owner_name" style="ellipse;whiteSpace=wrap;html=1;align=center;" vertex="1" parent="1">
          <mxGeometry x="720" y="420" width="100" height="40" as="geometry" />
        </mxCell>
        <mxCell id="9iPAaeVlu0GO-li201t--33" value="" style="endArrow=none;html=1;rounded=0;exitX=1;exitY=0.75;exitDx=0;exitDy=0;entryX=0;entryY=0.5;entryDx=0;entryDy=0;" edge="1" parent="1" source="9iPAaeVlu0GO-li201t--29" target="9iPAaeVlu0GO-li201t--32">
          <mxGeometry relative="1" as="geometry">
            <mxPoint x="610" y="450" as="sourcePoint" />
            <mxPoint x="770" y="450" as="targetPoint" />
          </mxGeometry>
        </mxCell>
        <mxCell id="9iPAaeVlu0GO-li201t--34" value="assign&amp;nbsp;" style="shape=rhombus;perimeter=rhombusPerimeter;whiteSpace=wrap;html=1;align=center;" vertex="1" parent="1">
          <mxGeometry x="320" y="190" width="95" height="40" as="geometry" />
        </mxCell>
        <mxCell id="9iPAaeVlu0GO-li201t--35" value="M" style="text;html=1;align=center;verticalAlign=middle;resizable=0;points=[];autosize=1;strokeColor=none;fillColor=none;" vertex="1" parent="1">
          <mxGeometry x="515" y="178" width="30" height="30" as="geometry" />
        </mxCell>
        <mxCell id="9iPAaeVlu0GO-li201t--36" value="1" style="text;html=1;align=center;verticalAlign=middle;resizable=0;points=[];autosize=1;strokeColor=none;fillColor=none;" vertex="1" parent="1">
          <mxGeometry x="215" y="178" width="30" height="30" as="geometry" />
        </mxCell>
        <mxCell id="9iPAaeVlu0GO-li201t--37" value="" style="shape=link;html=1;rounded=0;" edge="1" parent="1">
          <mxGeometry relative="1" as="geometry">
            <mxPoint x="410" y="210" as="sourcePoint" />
            <mxPoint x="570" y="210" as="targetPoint" />
          </mxGeometry>
        </mxCell>
        <mxCell id="9iPAaeVlu0GO-li201t--41" value="manage&amp;nbsp;" style="shape=rhombus;perimeter=rhombusPerimeter;whiteSpace=wrap;html=1;align=center;" vertex="1" parent="1">
          <mxGeometry x="323" y="240" width="92" height="50" as="geometry" />
        </mxCell>
        <mxCell id="9iPAaeVlu0GO-li201t--42" value="1" style="text;html=1;align=center;verticalAlign=middle;resizable=0;points=[];autosize=1;strokeColor=none;fillColor=none;" vertex="1" parent="1">
          <mxGeometry x="535" y="218" width="30" height="30" as="geometry" />
        </mxCell>
        <mxCell id="9iPAaeVlu0GO-li201t--43" value="" style="shape=link;html=1;rounded=0;entryX=0.08;entryY=0.48;entryDx=0;entryDy=0;entryPerimeter=0;" edge="1" parent="1" source="9iPAaeVlu0GO-li201t--1" target="9iPAaeVlu0GO-li201t--41">
          <mxGeometry relative="1" as="geometry">
            <mxPoint x="163" y="250" as="sourcePoint" />
            <mxPoint x="323" y="250" as="targetPoint" />
          </mxGeometry>
        </mxCell>
        <mxCell id="9iPAaeVlu0GO-li201t--44" value="" style="resizable=0;html=1;whiteSpace=wrap;align=left;verticalAlign=bottom;" connectable="0" vertex="1" parent="9iPAaeVlu0GO-li201t--43">
          <mxGeometry x="-1" relative="1" as="geometry" />
        </mxCell>
        <mxCell id="9iPAaeVlu0GO-li201t--45" value="" style="resizable=0;html=1;whiteSpace=wrap;align=right;verticalAlign=bottom;" connectable="0" vertex="1" parent="9iPAaeVlu0GO-li201t--43">
          <mxGeometry x="1" relative="1" as="geometry" />
        </mxCell>
        <mxCell id="9iPAaeVlu0GO-li201t--46" value="" style="endArrow=none;html=1;rounded=0;entryX=0.25;entryY=1;entryDx=0;entryDy=0;exitX=1;exitY=0.5;exitDx=0;exitDy=0;" edge="1" parent="1" source="9iPAaeVlu0GO-li201t--41" target="9iPAaeVlu0GO-li201t--8">
          <mxGeometry relative="1" as="geometry">
            <mxPoint x="430" y="264.5" as="sourcePoint" />
            <mxPoint x="590" y="264.5" as="targetPoint" />
          </mxGeometry>
        </mxCell>
        <mxCell id="9iPAaeVlu0GO-li201t--47" value="1" style="text;html=1;align=center;verticalAlign=middle;resizable=0;points=[];autosize=1;strokeColor=none;fillColor=none;" vertex="1" parent="1">
          <mxGeometry x="190" y="230" width="30" height="30" as="geometry" />
        </mxCell>
        <mxCell id="9iPAaeVlu0GO-li201t--48" value="list" style="shape=rhombus;perimeter=rhombusPerimeter;whiteSpace=wrap;html=1;align=center;" vertex="1" parent="1">
          <mxGeometry x="105" y="290" width="90" height="40" as="geometry" />
        </mxCell>
        <mxCell id="9iPAaeVlu0GO-li201t--49" value="1" style="text;html=1;align=center;verticalAlign=middle;resizable=0;points=[];autosize=1;strokeColor=none;fillColor=none;" vertex="1" parent="1">
          <mxGeometry x="110" y="228" width="30" height="30" as="geometry" />
        </mxCell>
        <mxCell id="9iPAaeVlu0GO-li201t--50" value="M" style="text;html=1;align=center;verticalAlign=middle;resizable=0;points=[];autosize=1;strokeColor=none;fillColor=none;" vertex="1" parent="1">
          <mxGeometry x="150" y="350" width="30" height="30" as="geometry" />
        </mxCell>
        <mxCell id="9iPAaeVlu0GO-li201t--51" value="" style="shape=link;html=1;rounded=0;exitX=0.42;exitY=-0.02;exitDx=0;exitDy=0;exitPerimeter=0;entryX=0.5;entryY=1;entryDx=0;entryDy=0;" edge="1" parent="1" source="9iPAaeVlu0GO-li201t--13" target="9iPAaeVlu0GO-li201t--48">
          <mxGeometry relative="1" as="geometry">
            <mxPoint x="150" y="350" as="sourcePoint" />
            <mxPoint x="310" y="350" as="targetPoint" />
          </mxGeometry>
        </mxCell>
        <mxCell id="9iPAaeVlu0GO-li201t--53" value="" style="endArrow=none;html=1;rounded=0;exitX=0.4;exitY=1.01;exitDx=0;exitDy=0;exitPerimeter=0;entryX=0.5;entryY=0;entryDx=0;entryDy=0;" edge="1" parent="1" source="9iPAaeVlu0GO-li201t--1" target="9iPAaeVlu0GO-li201t--48">
          <mxGeometry relative="1" as="geometry">
            <mxPoint x="130" y="260" as="sourcePoint" />
            <mxPoint x="290" y="260" as="targetPoint" />
          </mxGeometry>
        </mxCell>
        <mxCell id="9iPAaeVlu0GO-li201t--54" value="have" style="shape=rhombus;perimeter=rhombusPerimeter;whiteSpace=wrap;html=1;align=center;" vertex="1" parent="1">
          <mxGeometry x="335" y="385" width="90" height="35" as="geometry" />
        </mxCell>
        <mxCell id="9iPAaeVlu0GO-li201t--55" value="M" style="text;html=1;align=center;verticalAlign=middle;resizable=0;points=[];autosize=1;strokeColor=none;fillColor=none;" vertex="1" parent="1">
          <mxGeometry x="525" y="378" width="30" height="30" as="geometry" />
        </mxCell>
        <mxCell id="9iPAaeVlu0GO-li201t--56" value="M" style="text;html=1;align=center;verticalAlign=middle;resizable=0;points=[];autosize=1;strokeColor=none;fillColor=none;" vertex="1" parent="1">
          <mxGeometry x="205" y="398" width="30" height="30" as="geometry" />
        </mxCell>
        <mxCell id="9iPAaeVlu0GO-li201t--57" value="" style="endArrow=none;html=1;rounded=0;entryX=0.127;entryY=0.634;entryDx=0;entryDy=0;entryPerimeter=0;" edge="1" parent="1" source="9iPAaeVlu0GO-li201t--13" target="9iPAaeVlu0GO-li201t--54">
          <mxGeometry relative="1" as="geometry">
            <mxPoint x="210" y="400" as="sourcePoint" />
            <mxPoint x="370" y="400" as="targetPoint" />
          </mxGeometry>
        </mxCell>
        <mxCell id="9iPAaeVlu0GO-li201t--58" value="" style="endArrow=none;html=1;rounded=0;entryX=0;entryY=1;entryDx=0;entryDy=0;exitX=0.891;exitY=0.771;exitDx=0;exitDy=0;exitPerimeter=0;" edge="1" parent="1" source="9iPAaeVlu0GO-li201t--54" target="9iPAaeVlu0GO-li201t--29">
          <mxGeometry relative="1" as="geometry">
            <mxPoint x="220" y="310" as="sourcePoint" />
            <mxPoint x="380" y="310" as="targetPoint" />
          </mxGeometry>
        </mxCell>
        <mxCell id="9iPAaeVlu0GO-li201t--59" value="" style="shape=link;html=1;rounded=0;entryX=0.084;entryY=0.53;entryDx=0;entryDy=0;entryPerimeter=0;" edge="1" parent="1" target="9iPAaeVlu0GO-li201t--34">
          <mxGeometry relative="1" as="geometry">
            <mxPoint x="200" y="210" as="sourcePoint" />
            <mxPoint x="320" y="210" as="targetPoint" />
          </mxGeometry>
        </mxCell>
      </root>
    </mxGraphModel>
  </diagram>
</mxfile>
